# xmcd
# Track frame offsets:
# 150
# 14514
# 31143
# 42344
# 52178
# 68222
# 82973
# 96300
# 110004
# 133351
# 146603
# 158005
# 167931
# 178445
#
# Disc length: 2542 seconds
# Revision: 0
# Processed by: cddbd v1.5.2PL0 Copyright (c) Steve Scherf et al.
# Submitted via: VisiTrax 2.10.3.257 - For more info visit www.synapsa.com
#
DISCID=ce09ec0e
DTITLE=Adams, Clelia - HEartbeat Highway
DYEAR=2005
DGENRE=
TTITLE0=Heartbeat Highway
TTITLE1=Talk of the Town
TTITLE2=Settin the woods on fire
TTITLE3=Back in baby's arms
TTITLE4=Half  as Much
TTITLE5=Green Door
TTITLE6=Rock and Roll Waltz
TTITLE7=Yodelin Blues
TTITLE8=Our Town
TTITLE9=Cowboy's Sweetheart
TTITLE10=Que Sera Sera
TTITLE11=Stupid Cupid
TTITLE12=My Boy Lollipop
TTITLE13=Mountain of Love
EXTD=
EXTT0=
EXTT1=
EXTT2=
EXTT3=
EXTT4=
EXTT5=
EXTT6=
EXTT7=
EXTT8=
EXTT9=
EXTT10=
EXTT11=
EXTT12=
EXTT13=
PLAYORDER=
